PathFileType  4	(X/Y/Z) C:\Users\antoi\Documents\MyRepositories\mobilecap\ResultsAnalysis
DataRate	CameraRate	NumFrames	NumMarkers	Units	OrigDataRate	OrigDataStartFrame	OrigNumFrames
100.0	100.0	6	51	mm	100.0	38	150
Frame#	Time	r_knee			r_shank_antsup			r_ankle			r_calc			r_5meta			r_toe			L_knee			L_shank_antsup			L_ankle			L_calc			L_5meta			L_toe			r_sh2			r_sh3			r_sh4			L_sh2			L_sh3			r_thigh1			r_thigh2			r_thigh3			r_thigh4			r_thigh5			L_thigh1			L_thigh2			L_thigh3			L_thigh4			r.ASIS			r.PSIS			L.ASIS			L.PSIS			C7			R_Shoulder			L_Shoulder			R_Sternum			L_Sternum			R_humerus			R_elbow_med			R_elbow_lat			R_forearm			R_wrist_radius			R_wrist_ulna			L_humerus			L_elbow_med			L_elbow_lat			L_forearm			L_wrist_radius			L_wrist_ulna			R_HJC			L_HJC			R_HJC_reg			L_HJC_reg			
		X1	Y1	Z1	X2	Y2	Z2	X3	Y3	Z3	X4	Y4	Z4	X5	Y5	Z5	X6	Y6	Z6	X7	Y7	Z7	X8	Y8	Z8	X9	Y9	Z9	X10	Y10	Z10	X11	Y11	Z11	X12	Y12	Z12	X13	Y13	Z13	X14	Y14	Z14	X15	Y15	Z15	X16	Y16	Z16	X17	Y17	Z17	X18	Y18	Z18	X19	Y19	Z19	X20	Y20	Z20	X21	Y21	Z21	X22	Y22	Z22	X23	Y23	Z23	X24	Y24	Z24	X25	Y25	Z25	X26	Y26	Z26	X27	Y27	Z27	X28	Y28	Z28	X29	Y29	Z29	X30	Y30	Z30	X31	Y31	Z31	X32	Y32	Z32	X33	Y33	Z33	X34	Y34	Z34	X35	Y35	Z35	X36	Y36	Z36	X37	Y37	Z37	X38	Y38	Z38	X39	Y39	Z39	X40	Y40	Z40	X41	Y41	Z41	X42	Y42	Z42	X43	Y43	Z43	X44	Y44	Z44	X45	Y45	Z45	X46	Y46	Z46	X47	Y47	Z47	X48	Y48	Z48	X49	Y49	Z49	X50	Y50	Z50	X51	Y51	Z51	

38	0.37000000	208.73521	467.86433	-72.68650	207.65326	394.04783	-52.20146	147.82644	96.84066	-104.26568	74.47682	65.51783	-144.52176	245.10946	43.56104	-79.87774	289.35600	61.85025	-135.52770	341.12961	489.62727	-386.78533	341.42573	415.10265	-385.43782	142.72265	183.86586	-322.60097	69.09479	198.48594	-271.52176	189.21986	86.51723	-339.23353	249.11861	88.04791	-291.10445	191.25298	282.78358	-53.43350	134.85477	403.78800	-68.33057	110.68142	291.60601	-75.81611	269.77658	468.43250	-398.75231	205.50254	365.40292	-386.03404	285.66147	783.98544	-70.47081	293.08438	669.29926	-65.47202	242.37663	647.08138	-25.41761	186.01893	779.60997	-11.45544	185.81989	663.24530	-25.73166	284.83633	777.15367	-377.78534	349.47460	652.69442	-391.21554	184.55816	728.54369	-392.10121	255.56395	602.51466	-396.47756	270.43719	926.71336	-80.92234	81.59393	935.12422	-147.74852	255.25740	918.86252	-338.84833	73.49247	923.87583	-253.54601	160.65002	1403.61484	-194.01867	228.21670	1339.33171	-47.41717	200.56755	1345.83144	-363.13094	268.23691	1308.45674	-185.94192	265.44314	1309.73610	-230.04670	260.45424	1103.47038	32.31906	211.56557	995.12060	-2.68940	244.39766	1018.55312	56.90717	316.01340	918.08364	60.84715	358.91753	808.90576	59.80322	322.75166	794.75335	82.05103	227.76236	1217.40524	-417.12470	160.41620	1005.70113	-393.32563	175.84505	1017.12446	-451.44764	239.64560	926.33521	-467.91640	272.25452	804.33754	-458.75527	240.29608	791.97690	-476.16715	206.30308	847.90257	-104.26909	198.76167	843.24699	-304.36522	208.37065	849.94615	-104.57315	195.41783	831.95898	-273.73204	
39	0.38000000	213.32181	467.80738	-71.92915	211.29310	393.93779	-51.53323	148.21003	97.29890	-104.12171	74.80421	66.26947	-144.49626	245.19509	43.39556	-79.80816	289.63571	61.54765	-135.36776	356.35075	491.97018	-386.46992	358.70246	417.59231	-385.77807	171.55634	177.27959	-321.52920	98.35015	187.88416	-268.63811	222.01632	82.60633	-340.52516	282.75405	86.19206	-293.59777	193.67218	282.83993	-52.91819	138.71699	404.45762	-67.81057	113.33304	292.48686	-75.43776	284.59943	467.85435	-397.01239	224.98281	362.17480	-384.23620	294.26903	783.28031	-69.33886	300.44027	668.52745	-64.46149	249.47689	646.79728	-24.74042	194.59668	779.81531	-10.54735	193.12175	663.43902	-24.98794	295.88379	778.74690	-376.43468	362.44039	655.31025	-390.13122	196.37452	728.62336	-392.02148	269.33887	603.73827	-396.75383	280.37997	926.67629	-79.66478	91.40418	935.06398	-146.95855	265.30358	918.63935	-337.85305	83.40622	923.46607	-252.71997	170.42134	1403.54867	-194.80122	238.85793	1340.14897	-48.28808	209.34990	1344.72043	-363.96606	277.88805	1308.41123	-186.86455	274.87761	1309.45924	-230.95889	275.14924	1105.39042	32.16739	226.04237	996.13667	-0.26125	260.53563	1020.62120	58.12075	332.93314	920.64417	60.51782	376.92480	811.90711	58.95982	341.88259	797.77867	82.81949	235.86402	1216.00452	-417.86831	168.66537	1004.23739	-392.90919	183.31722	1015.57756	-451.21928	247.82631	925.30691	-467.93733	282.05876	803.77868	-458.43286	249.92934	790.90203	-475.17513	216.17237	847.84849	-103.18166	208.84745	842.97827	-303.28052	218.14038	850.17100	-103.16578	205.33943	831.60493	-272.44619	
40	0.39000000	218.16901	467.66468	-71.21436	215.16829	393.76219	-50.90063	148.60161	97.79440	-103.97003	75.11390	67.07972	-144.45804	245.28849	43.25275	-79.72276	289.96445	61.28734	-135.20464	370.95640	493.98382	-386.08384	375.36965	419.86574	-386.08702	200.40554	170.80015	-320.83975	127.97447	177.22816	-266.18301	254.75532	79.09029	-342.39227	316.20991	84.75671	-296.66414	196.25847	282.85945	-52.42551	142.83361	405.10278	-67.29476	116.17796	293.31878	-75.01775	298.92797	466.88856	-395.19976	244.21595	358.70227	-382.48567	302.89252	782.47652	-68.30865	307.89291	667.67876	-63.54391	256.74103	646.40559	-24.13817	203.20175	779.90007	-9.66754	200.52099	663.51643	-24.25214	306.77076	780.01716	-375.20311	375.00526	657.50181	-389.09969	207.89878	728.52307	-391.78406	282.60132	604.66763	-396.81465	290.32952	926.48603	-78.53515	101.24244	934.96597	-146.22403	275.36177	918.25027	-336.97165	93.34305	922.96196	-251.94986	180.15686	1403.36256	-195.78202	249.39845	1340.92888	-49.31341	218.17182	1343.44397	-364.92513	287.58779	1308.25235	-187.91310	284.24860	1309.00669	-231.98836	289.84130	1107.33903	31.70650	240.67454	997.24412	1.85594	276.75581	1022.74352	58.95013	349.77567	923.21187	59.91476	394.65528	814.83125	58.00243	360.62900	800.75664	83.36437	244.03812	1214.41463	-418.69189	177.05727	1002.62909	-392.48506	190.97153	1013.85746	-450.97671	256.13738	924.08485	-467.92316	291.91588	802.99704	-458.13573	259.62124	789.64766	-474.20782	226.03624	847.67865	-102.17688	218.89472	842.56865	-302.27626	227.86110	850.34506	-101.84693	215.20597	831.11165	-271.22727	
41	0.40000000	223.26708	467.44068	-70.53516	219.28250	393.51721	-50.30321	149.00242	98.32454	-103.80396	75.42259	67.94620	-144.40837	245.38711	43.13249	-79.61695	290.33045	61.04688	-135.04108	384.95481	495.63054	-385.59987	391.48722	421.89374	-386.31485	229.27008	164.45785	-320.62102	157.88996	166.57328	-264.35026	287.47106	75.97091	-344.72418	349.48747	83.82740	-300.12126	199.00454	282.84078	-51.95262	147.19167	405.72629	-66.78448	119.19681	294.11774	-74.56476	312.84083	465.52586	-393.37245	263.26186	354.98369	-380.87888	311.56922	781.58406	-67.38300	315.46071	666.75524	-62.70913	264.12570	645.91935	-23.58237	211.81991	779.87192	-8.80974	208.01725	663.48608	-23.53168	317.44699	780.94634	-374.19048	387.11055	659.23049	-388.19648	219.06433	728.18994	-391.34340	295.28080	605.25499	-396.59579	300.23169	926.11440	-77.59270	111.11012	934.81506	-145.53804	285.41030	917.69226	-336.20302	103.29892	922.36656	-251.22534	189.88766	1403.06394	-196.96035	259.89057	1341.66416	-50.51072	227.03430	1342.01617	-366.00991	297.33703	1307.98418	-189.10039	293.62656	1308.40674	-233.15249	304.43332	1109.29468	30.97927	255.40926	998.43511	3.63615	292.95473	1024.88512	59.38813	366.49529	925.77894	59.07526	412.10878	817.67978	56.97545	378.98674	803.67679	83.68458	252.28489	1212.65753	-419.58878	185.62043	1000.88844	-392.04053	198.83772	1011.97767	-450.72525	264.59783	922.67385	-467.87615	301.82970	801.99561	-457.86668	269.38391	788.22226	-473.28752	235.87573	847.36996	-101.27463	228.87430	842.01574	-301.37257	237.50939	850.45078	-100.67853	224.98776	830.49471	-270.09823	
42	0.41000000	228.60584	467.14378	-69.88832	223.63777	393.20450	-49.74189	149.42010	98.88792	-103.62073	75.75322	68.86431	-144.34669	245.49210	43.02921	-79.49328	290.71814	60.80257	-134.87851	398.36894	496.88570	-384.99621	407.13190	423.66418	-386.42256	258.16805	158.28825	-320.94871	188.00767	156.01157	-263.30897	320.18817	73.24869	-347.42295	382.56846	83.45259	-303.79956	201.91214	282.78385	-51.49697	151.78353	406.33198	-66.27388	122.37272	294.91862	-74.08983	326.42765	463.76683	-391.60011	282.18494	351.03741	-379.51801	320.31872	780.60925	-66.56093	323.15053	665.75818	-61.95013	271.58245	645.35841	-23.04058	220.45400	779.73563	-7.98295	215.61620	663.35576	-22.84251	327.86345	781.52145	-373.48385	398.70457	660.46850	-387.49484	229.82217	727.58662	-390.66104	307.33187	605.47105	-396.05129	310.06084	925.55763	-76.87426	121.00945	934.59385	-144.89256	295.41851	916.97200	-335.54003	113.26739	921.69174	-250.53593	199.64171	1402.66148	-198.33444	270.38544	1342.34496	-51.89457	235.94074	1340.44819	-367.22519	307.13219	1307.61720	-190.43998	303.05654	1307.68836	-234.46618	318.85224	1111.22835	30.02816	270.16888	999.68071	5.06102	309.02770	1027.01038	59.44960	383.03250	928.32068	58.03614	429.26811	820.44594	55.89904	396.95498	806.53092	83.78457	260.61939	1210.75956	-420.54182	194.37941	999.02241	-391.56369	206.93811	1009.94634	-450.46616	273.21990	921.07418	-467.80491	311.79438	800.77824	-457.61697	279.21789	786.62857	-472.42196	245.68538	846.91516	-100.48619	238.76424	841.32643	-300.58057	247.08713	850.46082	-99.70651	234.67426	829.77632	-269.08048	
43	0.42000000	234.17170	466.78192	-69.27610	228.22669	392.82981	-49.21902	149.86808	99.48571	-103.42420	76.12472	69.83334	-144.27146	245.60768	42.93416	-79.36080	291.11488	60.53949	-134.71489	411.23629	497.73885	-384.25510	422.39338	425.18561	-386.37801	287.12016	152.33735	-321.87804	218.23226	145.66018	-263.18792	352.91789	70.93470	-350.41567	415.41825	83.65185	-307.56042	204.98878	282.69144	-51.05840	156.60286	406.92166	-65.75384	125.69500	295.75997	-73.60369	339.78210	461.62268	-389.95468	301.05196	346.89810	-378.49619	329.14220	779.55640	-65.83429	330.95416	664.68809	-61.26203	279.07780	644.73968	-22.48906	229.12142	779.49338	-7.20774	223.32343	663.13212	-22.20095	337.98998	781.73560	-373.14464	409.76328	661.20177	-387.04831	240.15385	726.70139	-389.71738	318.74718	605.30389	-395.15969	319.83294	924.83735	-76.37478	130.94463	934.29243	-144.28158	305.37455	916.11085	-334.97220	123.24266	920.96046	-249.87572	209.43923	1402.16536	-199.90160	280.92973	1342.96311	-53.47467	244.89526	1338.74984	-368.57669	316.97394	1307.16592	-191.94301	312.55874	1306.87726	-235.93891	333.05385	1113.11017	28.88826	284.86298	1000.94281	6.11805	324.87952	1029.08793	59.16764	399.32721	930.80670	56.83111	446.11123	823.12237	54.77519	414.53220	809.31206	83.67259	269.06815	1208.74742	-421.53147	203.35073	997.03719	-391.04854	215.28165	1007.77247	-450.19951	282.00951	919.28524	-467.72298	321.79743	799.35003	-457.36927	289.11225	784.86632	-471.60582	255.47711	846.32630	-99.81014	248.56625	840.52155	-299.89880	256.62897	850.34822	-98.94072	244.28387	828.98204	-268.18648	
